<svg width="24" height="24" viewBox="0 0 24 24" fill="none" xmlns="http://www.w3.org/2000/svg">
<g clip-path="url(#clip0_211_78711)">
<path d="M19.0057 3C19.4785 3.00329 19.9439 3.1183 20.3638 3.33564C20.7837 3.55297 21.1463 3.86648 21.422 4.2506C21.6977 4.63472 21.8787 5.07857 21.9503 5.54594C22.0218 6.01332 21.9819 6.49099 21.8337 6.94L21.7657 7.125L21.7037 7.251L14.6137 19.484C14.3635 19.9368 14.0004 20.3172 13.5598 20.5882C13.1191 20.8592 12.6159 21.0117 12.0989 21.0308C11.582 21.0499 11.0688 20.9351 10.6094 20.6973C10.1499 20.4596 9.75973 20.1071 9.47673 19.674L9.37373 19.501L2.27373 7.251L2.21273 7.126C2.03264 6.68264 1.96123 6.20263 2.00445 5.72604C2.04768 5.24945 2.20429 4.79012 2.4612 4.38639C2.71812 3.98267 3.06789 3.64626 3.48132 3.40525C3.89474 3.16425 4.35982 3.02564 4.83773 3.001L4.89573 3L4.95573 3.002L4.99873 3H19.0057Z" fill="black"/>
</g>
<defs>
<clipPath id="clip0_211_78711">
<rect width="24" height="24" fill="white"/>
</clipPath>
</defs>
</svg>
