<svg width="24" height="24" viewBox="0 0 24 24" fill="none" xmlns="http://www.w3.org/2000/svg">
<g clip-path="url(#clip0_211_78708)">
<path d="M11.9893 1.96777C13.0123 1.96777 13.9593 2.48877 14.5013 3.32677L14.6043 3.49877L21.7043 15.7488L21.7663 15.8748C21.9437 16.3134 22.0148 16.7878 21.9738 17.2592C21.9328 17.7306 21.7809 18.1856 21.5305 18.5871C21.2801 18.9885 20.9383 19.3251 20.5329 19.5692C20.1276 19.8133 19.6703 19.9581 19.1983 19.9918L18.9993 19.9998H4.99934L4.95034 19.9968L4.83834 19.9988C4.39294 19.9759 3.95826 19.8539 3.56592 19.6418C3.17359 19.4297 2.83348 19.1329 2.57034 18.7728L2.46134 18.6128C2.22318 18.2386 2.07096 17.8163 2.01562 17.3762C1.96029 16.9361 2.00323 16.4893 2.14134 16.0678L2.21334 15.8738L2.27334 15.7488L9.36534 3.51577C9.62473 3.0468 10.005 2.65588 10.4666 2.38364C10.9283 2.11141 11.4544 1.96781 11.9903 1.96777H11.9893Z" fill="black"/>
</g>
<defs>
<clipPath id="clip0_211_78708">
<rect width="24" height="24" fill="white"/>
</clipPath>
</defs>
</svg>
